<svg id="svg" version="1.1" xmlns="http://www.w3.org/2000/svg" xmlns:xlink="http://www.w3.org/1999/xlink" width="400" height="400" viewBox="0, 0, 400,400"><g id="svgg"><path id="path0" d="M188.800 52.400 C 188.800 52.629,187.600 52.800,186.000 52.800 C 184.400 52.800,183.200 52.971,183.200 53.200 C 183.200 53.420,182.300 53.600,181.200 53.600 C 180.100 53.600,179.200 53.780,179.200 54.000 C 179.200 54.220,178.570 54.400,177.800 54.400 C 177.030 54.400,176.400 54.580,176.400 54.800 C 176.400 55.020,175.860 55.200,175.200 55.200 C 174.540 55.200,174.000 55.380,174.000 55.600 C 174.000 55.820,173.460 56.000,172.800 56.000 C 172.140 56.000,171.600 56.180,171.600 56.400 C 171.600 56.620,171.060 56.800,170.400 56.800 C 169.740 56.800,169.200 56.980,169.200 57.200 C 169.200 57.420,168.660 57.600,168.000 57.600 C 167.340 57.600,166.800 57.780,166.800 58.000 C 166.800 58.220,166.348 58.400,165.795 58.400 C 164.758 58.400,158.704 61.109,158.467 61.679 C 158.393 61.856,157.988 62.000,157.567 62.000 C 157.145 62.000,156.800 62.180,156.800 62.400 C 156.800 62.620,156.440 62.800,156.000 62.800 C 155.560 62.800,155.200 62.980,155.200 63.200 C 155.200 63.420,154.964 63.600,154.675 63.600 C 154.387 63.600,153.764 63.960,153.292 64.400 C 152.820 64.840,152.196 65.200,151.905 65.200 C 151.614 65.200,151.117 65.560,150.800 66.000 C 150.483 66.440,149.943 66.800,149.600 66.800 C 149.257 66.800,148.717 67.160,148.400 67.600 C 148.083 68.040,147.575 68.400,147.272 68.400 C 146.969 68.400,146.244 68.895,145.660 69.500 C 145.077 70.105,144.105 70.855,143.500 71.168 C 142.895 71.480,142.400 71.866,142.400 72.025 C 142.400 72.510,140.110 74.800,139.625 74.800 C 139.118 74.800,138.261 75.532,134.785 78.935 C 133.473 80.219,132.400 81.446,132.400 81.661 C 132.400 81.876,131.500 82.929,130.400 84.000 C 129.300 85.071,128.400 86.141,128.400 86.378 C 128.400 86.614,127.860 87.372,127.200 88.063 C 126.540 88.754,126.000 89.485,126.000 89.688 C 126.000 89.891,125.775 90.308,125.500 90.615 C 124.313 91.938,124.000 92.391,124.000 92.783 C 124.000 93.012,123.820 93.200,123.600 93.200 C 123.380 93.200,123.200 93.478,123.200 93.817 C 123.200 94.156,122.840 94.820,122.400 95.292 C 121.960 95.764,121.600 96.387,121.600 96.675 C 121.600 96.964,121.420 97.200,121.200 97.200 C 120.980 97.200,120.800 97.560,120.800 98.000 C 120.800 98.440,120.620 98.800,120.400 98.800 C 120.180 98.800,120.000 99.160,120.000 99.600 C 120.000 100.040,119.820 100.400,119.600 100.400 C 119.380 100.400,119.200 100.760,119.200 101.200 C 119.200 101.640,119.020 102.000,118.800 102.000 C 118.580 102.000,118.400 102.360,118.400 102.800 C 118.400 103.240,118.220 103.600,118.000 103.600 C 117.780 103.600,117.600 103.960,117.600 104.400 C 117.600 104.840,117.420 105.200,117.200 105.200 C 116.980 105.200,116.800 105.560,116.800 106.000 C 116.800 106.440,116.620 106.800,116.400 106.800 C 116.180 106.800,116.000 107.239,116.000 107.776 C 116.000 108.313,115.820 108.864,115.600 109.000 C 115.380 109.136,115.200 109.597,115.200 110.024 C 115.200 110.451,115.020 110.800,114.800 110.800 C 114.580 110.800,114.400 111.239,114.400 111.776 C 114.400 112.313,114.220 112.864,114.000 113.000 C 113.780 113.136,113.600 113.676,113.600 114.200 C 113.600 114.724,113.420 115.264,113.200 115.400 C 112.980 115.536,112.800 116.267,112.800 117.024 C 112.800 117.781,112.620 118.400,112.400 118.400 C 112.180 118.400,112.000 119.120,112.000 120.000 C 112.000 120.880,111.820 121.600,111.600 121.600 C 111.380 121.600,111.200 122.284,111.200 123.120 C 111.200 123.956,111.035 124.811,110.834 125.020 C 110.375 125.496,110.014 129.100,109.756 135.800 C 109.645 138.660,109.385 141.171,109.178 141.380 C 108.970 141.589,108.800 142.138,108.800 142.600 C 108.800 143.062,108.970 143.611,109.178 143.820 C 109.385 144.029,109.645 146.540,109.756 149.400 C 110.016 156.147,110.381 159.600,110.836 159.600 C 111.036 159.600,111.200 160.500,111.200 161.600 C 111.200 162.700,111.380 163.600,111.600 163.600 C 111.820 163.600,112.000 164.219,112.000 164.976 C 112.000 165.733,112.180 166.464,112.400 166.600 C 112.620 166.736,112.800 167.377,112.800 168.024 C 112.800 168.671,112.980 169.200,113.200 169.200 C 113.420 169.200,113.600 169.740,113.600 170.400 C 113.600 171.060,113.780 171.600,114.000 171.600 C 114.220 171.600,114.400 172.039,114.400 172.576 C 114.400 173.113,114.580 173.664,114.800 173.800 C 115.020 173.936,115.200 174.487,115.200 175.024 C 115.200 175.561,115.380 176.000,115.600 176.000 C 115.820 176.000,116.000 176.360,116.000 176.800 C 116.000 177.240,116.180 177.600,116.400 177.600 C 116.620 177.600,116.800 178.140,116.800 178.800 C 116.800 179.460,116.980 180.000,117.200 180.000 C 117.420 180.000,117.600 180.360,117.600 180.800 C 117.600 181.240,117.780 181.600,118.000 181.600 C 118.220 181.600,118.400 181.960,118.400 182.400 C 118.400 182.840,118.580 183.200,118.800 183.200 C 119.020 183.200,119.200 183.560,119.200 184.000 C 119.200 184.440,119.380 184.800,119.600 184.800 C 119.820 184.800,120.000 185.036,120.000 185.325 C 120.000 185.613,120.360 186.236,120.800 186.708 C 121.240 187.180,121.600 187.844,121.600 188.183 C 121.600 188.522,121.780 188.800,122.000 188.800 C 122.220 188.800,122.400 189.036,122.400 189.325 C 122.400 189.613,122.760 190.236,123.200 190.708 C 123.640 191.180,124.000 191.754,124.000 191.983 C 124.000 192.212,124.153 192.400,124.339 192.400 C 124.526 192.400,125.003 193.120,125.400 194.000 C 125.797 194.880,126.274 195.600,126.461 195.600 C 126.647 195.600,126.800 195.848,126.800 196.152 C 126.800 196.455,127.520 197.445,128.400 198.352 C 129.280 199.259,130.000 200.188,130.000 200.416 C 130.000 200.915,141.314 212.000,141.823 212.000 C 141.955 212.000,142.754 212.720,143.600 213.600 C 144.446 214.480,145.382 215.200,145.680 215.200 C 145.979 215.200,146.483 215.560,146.800 216.000 C 147.117 216.440,147.609 216.800,147.892 216.800 C 148.175 216.800,148.972 217.340,149.663 218.000 C 150.354 218.660,151.162 219.200,151.459 219.200 C 151.757 219.200,152.000 219.380,152.000 219.600 C 152.000 219.820,152.278 220.000,152.617 220.000 C 152.956 220.000,153.620 220.360,154.092 220.800 C 154.564 221.240,155.187 221.600,155.475 221.600 C 155.764 221.600,156.000 221.780,156.000 222.000 C 156.000 222.220,156.360 222.400,156.800 222.400 C 157.240 222.400,157.600 222.580,157.600 222.800 C 157.600 223.020,157.960 223.200,158.400 223.200 C 160.216 223.200,158.622 224.691,156.431 225.041 C 155.524 225.186,154.686 225.461,154.568 225.653 C 154.449 225.844,153.924 226.000,153.400 226.000 C 152.876 226.000,152.336 226.180,152.200 226.400 C 152.064 226.620,151.603 226.800,151.176 226.800 C 150.749 226.800,150.400 226.980,150.400 227.200 C 150.400 227.420,149.961 227.600,149.424 227.600 C 148.887 227.600,148.336 227.780,148.200 228.000 C 148.064 228.220,147.603 228.400,147.176 228.400 C 146.749 228.400,146.400 228.580,146.400 228.800 C 146.400 229.020,146.040 229.200,145.600 229.200 C 145.160 229.200,144.800 229.380,144.800 229.600 C 144.800 229.820,144.390 230.000,143.888 230.000 C 143.387 230.000,142.717 230.360,142.400 230.800 C 142.083 231.240,141.503 231.600,141.112 231.600 C 140.720 231.600,140.400 231.780,140.400 232.000 C 140.400 232.220,140.040 232.400,139.600 232.400 C 139.160 232.400,138.800 232.580,138.800 232.800 C 138.800 233.020,138.440 233.200,138.000 233.200 C 137.560 233.200,137.200 233.380,137.200 233.600 C 137.200 233.820,136.840 234.000,136.400 234.000 C 135.960 234.000,135.600 234.180,135.600 234.400 C 135.600 234.620,135.280 234.800,134.888 234.800 C 134.497 234.800,133.917 235.160,133.600 235.600 C 133.283 236.040,132.703 236.400,132.312 236.400 C 131.920 236.400,131.600 236.580,131.600 236.800 C 131.600 237.020,131.364 237.200,131.075 237.200 C 130.787 237.200,130.164 237.560,129.692 238.000 C 129.220 238.440,128.596 238.800,128.305 238.800 C 128.014 238.800,127.517 239.160,127.200 239.600 C 126.883 240.040,126.459 240.400,126.259 240.400 C 126.058 240.400,125.603 240.733,125.247 241.141 C 124.891 241.548,123.970 242.205,123.200 242.600 C 122.430 242.995,121.509 243.652,121.153 244.059 C 120.797 244.467,120.288 244.800,120.022 244.800 C 119.755 244.800,118.846 245.520,118.000 246.400 C 117.154 247.280,116.262 248.000,116.016 248.000 C 115.770 248.000,113.957 249.665,111.986 251.700 C 108.112 255.701,106.684 257.135,102.393 261.331 C 100.857 262.832,99.600 264.227,99.600 264.430 C 99.600 264.633,98.880 265.541,98.000 266.448 C 97.120 267.355,96.400 268.263,96.400 268.466 C 96.400 268.670,95.964 269.272,95.431 269.805 C 94.898 270.338,94.346 271.140,94.204 271.587 C 94.062 272.034,93.799 272.400,93.619 272.400 C 93.439 272.400,92.996 272.985,92.635 273.700 C 91.764 275.423,91.147 276.389,90.300 277.354 C 89.915 277.792,89.600 278.304,89.600 278.492 C 89.600 278.680,89.240 279.220,88.800 279.692 C 88.360 280.164,88.000 280.787,88.000 281.075 C 88.000 281.364,87.820 281.600,87.600 281.600 C 87.380 281.600,87.200 281.960,87.200 282.400 C 87.200 282.840,87.020 283.200,86.800 283.200 C 86.580 283.200,86.400 283.560,86.400 284.000 C 86.400 284.440,86.220 284.800,86.000 284.800 C 85.780 284.800,85.600 285.120,85.600 285.512 C 85.600 285.903,85.240 286.483,84.800 286.800 C 84.360 287.117,84.000 287.697,84.000 288.088 C 84.000 288.480,83.820 288.800,83.600 288.800 C 83.380 288.800,83.200 289.160,83.200 289.600 C 83.200 290.040,83.020 290.400,82.800 290.400 C 82.580 290.400,82.400 290.760,82.400 291.200 C 82.400 291.640,82.220 292.000,82.000 292.000 C 81.780 292.000,81.600 292.450,81.600 293.000 C 81.600 293.550,81.420 294.000,81.200 294.000 C 80.980 294.000,80.800 294.360,80.800 294.800 C 80.800 295.240,80.620 295.600,80.400 295.600 C 80.180 295.600,80.000 295.949,80.000 296.376 C 80.000 296.803,79.820 297.264,79.600 297.400 C 79.380 297.536,79.200 298.087,79.200 298.624 C 79.200 299.161,79.020 299.600,78.800 299.600 C 78.580 299.600,78.400 299.949,78.400 300.376 C 78.400 300.803,78.220 301.264,78.000 301.400 C 77.780 301.536,77.600 302.087,77.600 302.624 C 77.600 303.161,77.420 303.600,77.200 303.600 C 76.980 303.600,76.800 304.052,76.800 304.605 C 76.800 305.158,76.642 305.923,76.448 306.305 C 75.697 307.789,74.796 311.061,74.798 312.300 C 74.799 313.015,74.620 313.600,74.400 313.600 C 74.180 313.600,74.000 314.320,74.000 315.200 C 74.000 316.080,73.820 316.800,73.600 316.800 C 73.380 316.800,73.200 317.520,73.200 318.400 C 73.200 319.280,73.020 320.000,72.800 320.000 C 72.580 320.000,72.400 320.900,72.400 322.000 C 72.400 323.100,72.220 324.000,72.000 324.000 C 71.780 324.000,71.600 324.990,71.600 326.200 C 71.600 327.410,71.420 328.400,71.200 328.400 C 70.963 328.400,70.800 329.867,70.800 332.000 C 70.800 334.133,70.637 335.600,70.400 335.600 C 70.161 335.600,70.000 337.133,70.000 339.400 C 70.000 341.667,70.161 343.200,70.400 343.200 C 70.620 343.200,70.800 343.475,70.800 343.811 C 70.800 344.710,74.247 348.000,75.189 348.000 C 75.635 348.000,76.000 348.180,76.000 348.400 C 76.000 348.620,76.720 348.800,77.600 348.800 C 78.480 348.800,79.200 348.620,79.200 348.400 C 79.200 348.180,79.835 348.000,80.611 348.000 C 82.384 348.000,85.600 345.042,85.600 343.411 C 85.600 342.855,85.780 342.400,86.000 342.400 C 86.225 342.400,86.400 341.275,86.400 339.824 C 86.400 338.407,86.580 337.136,86.800 337.000 C 87.020 336.864,87.200 335.233,87.200 333.376 C 87.200 331.392,87.365 330.000,87.600 330.000 C 87.820 330.000,88.000 329.100,88.000 328.000 C 88.000 326.900,88.180 326.000,88.400 326.000 C 88.620 326.000,88.800 325.201,88.800 324.224 C 88.800 323.247,88.980 322.336,89.200 322.200 C 89.420 322.064,89.600 321.421,89.600 320.771 C 89.600 320.121,89.763 319.277,89.963 318.895 C 90.652 317.577,91.600 313.904,91.600 312.554 C 91.600 311.809,91.780 311.200,92.000 311.200 C 92.220 311.200,92.400 310.660,92.400 310.000 C 92.400 309.340,92.580 308.800,92.800 308.800 C 93.020 308.800,93.200 308.440,93.200 308.000 C 93.200 307.560,93.380 307.200,93.600 307.200 C 93.820 307.200,94.000 306.750,94.000 306.200 C 94.000 305.650,94.180 305.200,94.400 305.200 C 94.620 305.200,94.800 304.840,94.800 304.400 C 94.800 303.960,94.980 303.600,95.200 303.600 C 95.420 303.600,95.600 303.240,95.600 302.800 C 95.600 302.360,95.780 302.000,96.000 302.000 C 96.220 302.000,96.400 301.460,96.400 300.800 C 96.400 300.140,96.580 299.600,96.800 299.600 C 97.020 299.600,97.200 299.240,97.200 298.800 C 97.200 298.360,97.380 298.000,97.600 298.000 C 97.820 298.000,98.000 297.640,98.000 297.200 C 98.000 296.760,98.180 296.400,98.400 296.400 C 98.620 296.400,98.800 296.080,98.800 295.688 C 98.800 295.297,99.160 294.717,99.600 294.400 C 100.040 294.083,100.400 293.503,100.400 293.112 C 100.400 292.720,100.580 292.400,100.800 292.400 C 101.020 292.400,101.200 292.040,101.200 291.600 C 101.200 291.160,101.380 290.800,101.600 290.800 C 101.820 290.800,102.000 290.530,102.000 290.200 C 102.000 289.870,102.180 289.600,102.400 289.600 C 102.620 289.600,102.800 289.330,102.800 289.000 C 102.800 288.670,102.980 288.400,103.200 288.400 C 103.420 288.400,103.600 288.130,103.600 287.800 C 103.600 287.470,103.750 287.200,103.932 287.200 C 104.115 287.200,104.520 286.705,104.832 286.100 C 105.145 285.495,105.538 284.820,105.706 284.600 C 106.677 283.328,108.000 281.105,108.000 280.743 C 108.000 280.511,108.540 279.817,109.200 279.200 C 109.860 278.583,110.400 277.867,110.400 277.608 C 110.400 277.349,111.120 276.446,112.000 275.600 C 112.880 274.754,113.600 273.957,113.600 273.828 C 113.600 273.542,124.309 262.800,124.594 262.800 C 124.704 262.800,125.892 261.720,127.232 260.400 C 128.573 259.080,129.881 258.000,130.139 258.000 C 130.397 258.000,131.056 257.595,131.604 257.100 C 132.152 256.605,133.095 255.945,133.700 255.632 C 134.305 255.320,134.800 254.915,134.800 254.732 C 134.800 254.550,135.043 254.400,135.341 254.400 C 135.638 254.400,136.446 253.860,137.137 253.200 C 137.828 252.540,138.664 252.000,138.996 252.000 C 139.328 252.000,139.600 251.820,139.600 251.600 C 139.600 251.380,139.830 251.200,140.112 251.200 C 140.393 251.200,140.883 250.840,141.200 250.400 C 141.517 249.960,142.097 249.600,142.488 249.600 C 142.880 249.600,143.200 249.420,143.200 249.200 C 143.200 248.980,143.560 248.800,144.000 248.800 C 144.440 248.800,144.800 248.620,144.800 248.400 C 144.800 248.180,145.120 248.000,145.512 248.000 C 145.903 248.000,146.483 247.640,146.800 247.200 C 147.117 246.760,147.697 246.400,148.088 246.400 C 148.480 246.400,148.800 246.220,148.800 246.000 C 148.800 245.780,149.340 245.600,150.000 245.600 C 150.660 245.600,151.200 245.420,151.200 245.200 C 151.200 244.980,151.560 244.800,152.000 244.800 C 152.440 244.800,152.800 244.620,152.800 244.400 C 152.800 244.180,153.160 244.000,153.600 244.000 C 154.040 244.000,154.400 243.820,154.400 243.600 C 154.400 243.380,154.760 243.200,155.200 243.200 C 155.640 243.200,156.000 243.020,156.000 242.800 C 156.000 242.580,156.360 242.400,156.800 242.400 C 157.240 242.400,157.600 242.237,157.600 242.038 C 157.600 241.838,158.500 241.551,159.600 241.400 C 160.699 241.249,161.700 240.962,161.823 240.763 C 161.946 240.563,162.451 240.400,162.944 240.400 C 163.437 240.400,164.011 240.251,164.220 240.070 C 164.429 239.888,165.410 239.510,166.400 239.231 C 167.390 238.951,168.513 238.560,168.895 238.361 C 169.277 238.162,170.121 238.000,170.771 238.000 C 171.421 238.000,172.064 237.820,172.200 237.600 C 172.336 237.380,173.067 237.200,173.824 237.200 C 174.581 237.200,175.200 237.020,175.200 236.800 C 175.200 236.580,175.920 236.400,176.800 236.400 C 177.680 236.400,178.400 236.220,178.400 236.000 C 178.400 235.771,179.600 235.600,181.200 235.600 C 182.800 235.600,184.000 235.429,184.000 235.200 C 184.000 234.974,185.133 234.800,186.600 234.800 C 188.067 234.800,189.200 234.626,189.200 234.400 C 189.200 234.143,193.133 234.000,200.200 234.000 C 207.267 234.000,211.200 234.143,211.200 234.400 C 211.200 234.622,212.267 234.800,213.600 234.800 C 214.933 234.800,216.000 234.978,216.000 235.200 C 216.000 235.429,217.200 235.600,218.800 235.600 C 220.400 235.600,221.600 235.771,221.600 236.000 C 221.600 236.220,222.320 236.400,223.200 236.400 C 224.080 236.400,224.800 236.580,224.800 236.800 C 224.800 237.020,225.419 237.200,226.176 237.200 C 226.933 237.200,227.664 237.380,227.800 237.600 C 227.936 237.820,228.656 238.000,229.400 238.000 C 230.144 238.000,230.864 238.180,231.000 238.400 C 231.136 238.620,231.852 238.800,232.590 238.800 C 233.329 238.800,233.993 238.941,234.067 239.113 C 234.235 239.509,240.592 241.600,241.628 241.600 C 242.052 241.600,242.400 241.780,242.400 242.000 C 242.400 242.220,242.760 242.400,243.200 242.400 C 243.640 242.400,244.000 242.580,244.000 242.800 C 244.000 243.020,244.360 243.200,244.800 243.200 C 245.240 243.200,245.600 243.380,245.600 243.600 C 245.600 243.820,245.960 244.000,246.400 244.000 C 246.840 244.000,247.200 244.180,247.200 244.400 C 247.200 244.620,247.740 244.800,248.400 244.800 C 249.060 244.800,249.600 244.980,249.600 245.200 C 249.600 245.420,249.960 245.600,250.400 245.600 C 250.840 245.600,251.200 245.780,251.200 246.000 C 251.200 246.220,251.560 246.400,252.000 246.400 C 252.440 246.400,252.800 246.580,252.800 246.800 C 252.800 247.020,253.120 247.200,253.512 247.200 C 253.903 247.200,254.483 247.560,254.800 248.000 C 255.117 248.440,255.697 248.800,256.088 248.800 C 256.480 248.800,256.800 248.980,256.800 249.200 C 256.800 249.420,257.094 249.600,257.453 249.600 C 257.812 249.600,258.397 249.916,258.753 250.303 C 259.109 250.689,259.940 251.273,260.600 251.600 C 261.260 251.927,262.091 252.511,262.447 252.897 C 262.803 253.284,263.299 253.600,263.551 253.600 C 263.802 253.600,264.572 254.140,265.263 254.800 C 265.954 255.460,266.762 256.000,267.059 256.000 C 267.357 256.000,267.600 256.159,267.600 256.354 C 267.600 256.549,268.271 257.027,269.091 257.416 C 269.911 257.805,271.247 258.816,272.059 259.662 C 272.872 260.508,273.821 261.200,274.169 261.200 C 274.516 261.200,274.800 261.379,274.800 261.597 C 274.800 261.815,277.590 264.784,281.000 268.194 C 284.410 271.604,287.200 274.499,287.200 274.628 C 287.200 274.757,287.920 275.554,288.800 276.400 C 289.680 277.246,290.400 278.140,290.400 278.387 C 290.400 278.634,290.819 279.255,291.330 279.766 C 291.842 280.278,292.493 281.260,292.779 281.948 C 293.064 282.637,293.455 283.200,293.649 283.200 C 293.842 283.200,294.000 283.436,294.000 283.725 C 294.000 284.013,294.360 284.636,294.800 285.108 C 295.240 285.580,295.600 286.120,295.600 286.308 C 295.600 286.496,295.915 286.998,296.300 287.425 C 296.685 287.851,297.269 288.740,297.597 289.400 C 297.926 290.060,298.511 290.891,298.897 291.247 C 299.284 291.603,299.600 292.188,299.600 292.547 C 299.600 292.906,299.780 293.200,300.000 293.200 C 300.220 293.200,300.400 293.560,300.400 294.000 C 300.400 294.440,300.580 294.800,300.800 294.800 C 301.020 294.800,301.200 295.160,301.200 295.600 C 301.200 296.040,301.380 296.400,301.600 296.400 C 301.820 296.400,302.000 296.760,302.000 297.200 C 302.000 297.640,302.180 298.000,302.400 298.000 C 302.620 298.000,302.800 298.360,302.800 298.800 C 302.800 299.240,302.980 299.600,303.200 299.600 C 303.420 299.600,303.600 299.960,303.600 300.400 C 303.600 300.840,303.780 301.200,304.000 301.200 C 304.220 301.200,304.400 301.639,304.400 302.176 C 304.400 302.713,304.580 303.264,304.800 303.400 C 305.020 303.536,305.200 303.997,305.200 304.424 C 305.200 304.851,305.380 305.200,305.600 305.200 C 305.820 305.200,306.000 305.560,306.000 306.000 C 306.000 306.440,306.180 306.800,306.400 306.800 C 306.620 306.800,306.800 307.250,306.800 307.800 C 306.800 308.350,306.980 308.800,307.200 308.800 C 307.420 308.800,307.600 309.340,307.600 310.000 C 307.600 310.660,307.759 311.200,307.954 311.200 C 308.149 311.200,308.431 312.187,308.582 313.394 C 308.733 314.600,309.023 315.691,309.228 315.817 C 309.433 315.944,309.600 316.577,309.600 317.224 C 309.600 317.871,309.780 318.400,310.000 318.400 C 310.220 318.400,310.400 319.019,310.400 319.776 C 310.400 320.533,310.580 321.264,310.800 321.400 C 311.020 321.536,311.200 322.447,311.200 323.424 C 311.200 324.401,311.380 325.200,311.600 325.200 C 311.820 325.200,312.000 326.100,312.000 327.200 C 312.000 328.300,312.180 329.200,312.400 329.200 C 312.633 329.200,312.800 330.533,312.800 332.400 C 312.800 334.267,312.967 335.600,313.200 335.600 C 313.435 335.600,313.600 337.000,313.600 339.000 C 313.600 341.000,313.765 342.400,314.000 342.400 C 314.220 342.400,314.400 342.855,314.400 343.411 C 314.400 345.042,317.616 348.000,319.389 348.000 C 320.165 348.000,320.800 348.180,320.800 348.400 C 320.800 348.620,321.610 348.800,322.600 348.800 C 323.590 348.800,324.400 348.620,324.400 348.400 C 324.400 348.180,324.720 348.000,325.112 348.000 C 325.503 348.000,326.083 347.640,326.400 347.200 C 326.717 346.760,327.297 346.400,327.688 346.400 C 328.104 346.400,328.400 346.104,328.400 345.688 C 328.400 345.297,328.760 344.717,329.200 344.400 C 330.092 343.757,330.467 334.000,329.600 334.000 C 329.367 334.000,329.200 332.667,329.200 330.800 C 329.200 328.933,329.033 327.600,328.800 327.600 C 328.580 327.600,328.400 326.610,328.400 325.400 C 328.400 324.190,328.220 323.200,328.000 323.200 C 327.780 323.200,327.600 322.300,327.600 321.200 C 327.600 320.100,327.420 319.200,327.200 319.200 C 326.980 319.200,326.800 318.480,326.800 317.600 C 326.800 316.720,326.620 316.000,326.400 316.000 C 326.180 316.000,326.000 315.280,326.000 314.400 C 326.000 313.520,325.820 312.800,325.600 312.800 C 325.380 312.800,325.200 312.269,325.200 311.620 C 325.200 310.503,322.734 302.194,321.961 300.705 C 321.762 300.323,321.600 299.738,321.600 299.405 C 321.600 299.072,321.420 298.800,321.200 298.800 C 320.980 298.800,320.800 298.440,320.800 298.000 C 320.800 297.560,320.620 297.200,320.400 297.200 C 320.180 297.200,320.000 296.857,320.000 296.438 C 320.000 295.622,318.399 292.288,317.900 292.067 C 317.735 291.993,317.600 291.588,317.600 291.167 C 317.600 290.745,317.420 290.400,317.200 290.400 C 316.980 290.400,316.800 290.040,316.800 289.600 C 316.800 289.160,316.620 288.800,316.400 288.800 C 316.180 288.800,316.000 288.440,316.000 288.000 C 316.000 287.560,315.820 287.200,315.600 287.200 C 315.380 287.200,315.200 286.840,315.200 286.400 C 315.200 285.960,315.020 285.600,314.800 285.600 C 314.580 285.600,314.400 285.240,314.400 284.800 C 314.400 284.360,314.220 284.000,314.000 284.000 C 313.780 284.000,313.600 283.680,313.600 283.288 C 313.600 282.897,313.240 282.317,312.800 282.000 C 312.360 281.683,312.000 281.143,312.000 280.800 C 312.000 280.457,311.640 279.917,311.200 279.600 C 310.760 279.283,310.400 278.703,310.400 278.312 C 310.400 277.920,310.220 277.600,310.000 277.600 C 309.780 277.600,309.600 277.330,309.600 277.000 C 309.600 276.670,309.441 276.400,309.246 276.400 C 309.051 276.400,308.573 275.725,308.184 274.900 C 307.794 274.075,307.144 273.109,306.738 272.753 C 306.332 272.397,306.000 271.884,306.000 271.614 C 306.000 271.343,305.460 270.617,304.800 270.000 C 304.140 269.383,303.600 268.663,303.600 268.400 C 303.600 268.137,303.060 267.417,302.400 266.800 C 301.740 266.183,301.200 265.497,301.200 265.274 C 301.200 265.052,300.120 263.773,298.800 262.432 C 297.480 261.092,296.400 259.904,296.400 259.792 C 296.400 259.512,288.864 252.000,288.583 252.000 C 288.458 252.000,287.296 250.920,286.000 249.600 C 284.704 248.280,283.455 247.200,283.223 247.200 C 282.991 247.200,282.059 246.480,281.152 245.600 C 280.245 244.720,279.338 244.000,279.135 244.000 C 278.932 244.000,278.369 243.628,277.883 243.174 C 277.397 242.719,276.415 242.069,275.700 241.728 C 274.985 241.387,274.400 240.949,274.400 240.754 C 274.400 240.559,274.170 240.400,273.888 240.400 C 273.607 240.400,273.117 240.040,272.800 239.600 C 272.483 239.160,271.943 238.800,271.600 238.800 C 271.257 238.800,270.717 238.440,270.400 238.000 C 270.083 237.560,269.543 237.200,269.200 237.200 C 268.857 237.200,268.317 236.840,268.000 236.400 C 267.683 235.960,267.103 235.600,266.712 235.600 C 266.320 235.600,266.000 235.420,266.000 235.200 C 266.000 234.980,265.640 234.800,265.200 234.800 C 264.760 234.800,264.400 234.620,264.400 234.400 C 264.400 234.180,264.040 234.000,263.600 234.000 C 263.160 234.000,262.800 233.820,262.800 233.600 C 262.800 233.380,262.480 233.200,262.088 233.200 C 261.697 233.200,261.117 232.840,260.800 232.400 C 260.483 231.960,259.903 231.600,259.512 231.600 C 259.120 231.600,258.800 231.420,258.800 231.200 C 258.800 230.980,258.440 230.800,258.000 230.800 C 257.560 230.800,257.200 230.620,257.200 230.400 C 257.200 230.180,256.750 230.000,256.200 230.000 C 255.650 230.000,255.200 229.820,255.200 229.600 C 255.200 229.380,254.840 229.200,254.400 229.200 C 253.960 229.200,253.600 229.020,253.600 228.800 C 253.600 228.580,253.364 228.400,253.075 228.400 C 252.786 228.400,251.805 228.040,250.894 227.600 C 249.984 227.160,248.960 226.800,248.619 226.800 C 248.279 226.800,248.000 226.620,248.000 226.400 C 248.000 226.180,247.571 226.000,247.046 226.000 C 246.521 226.000,245.576 225.731,244.946 225.402 C 244.316 225.074,243.382 224.804,242.871 224.802 C 241.467 224.799,240.413 223.626,241.548 223.330 C 242.016 223.207,242.400 222.948,242.400 222.753 C 242.400 222.559,242.760 222.400,243.200 222.400 C 243.640 222.400,244.000 222.220,244.000 222.000 C 244.000 221.780,244.320 221.600,244.712 221.600 C 245.103 221.600,245.683 221.240,246.000 220.800 C 246.317 220.360,246.897 220.000,247.288 220.000 C 247.680 220.000,248.000 219.820,248.000 219.600 C 248.000 219.380,248.320 219.200,248.712 219.200 C 249.103 219.200,249.683 218.840,250.000 218.400 C 250.317 217.960,250.857 217.600,251.200 217.600 C 251.543 217.600,252.083 217.240,252.400 216.800 C 252.717 216.360,253.185 216.000,253.440 216.000 C 253.695 216.000,254.645 215.280,255.552 214.400 C 256.459 213.520,257.286 212.800,257.391 212.800 C 257.495 212.800,258.779 211.630,260.245 210.200 C 261.711 208.770,263.038 207.600,263.194 207.600 C 263.579 207.600,265.200 206.173,265.200 205.834 C 265.200 205.684,266.460 204.319,268.000 202.800 C 269.540 201.281,270.800 199.845,270.800 199.608 C 270.800 199.371,271.348 198.597,272.018 197.889 C 273.498 196.322,275.200 193.745,275.200 193.071 C 275.200 192.799,275.560 192.317,276.000 192.000 C 276.440 191.683,276.800 191.193,276.800 190.912 C 276.800 190.630,276.980 190.400,277.200 190.400 C 277.420 190.400,277.600 190.080,277.600 189.688 C 277.600 189.297,277.960 188.717,278.400 188.400 C 278.840 188.083,279.200 187.503,279.200 187.112 C 279.200 186.720,279.380 186.400,279.600 186.400 C 279.820 186.400,280.000 186.040,280.000 185.600 C 280.000 185.160,280.180 184.800,280.400 184.800 C 280.620 184.800,280.800 184.440,280.800 184.000 C 280.800 183.560,280.980 183.200,281.200 183.200 C 281.420 183.200,281.600 182.840,281.600 182.400 C 281.600 181.960,281.780 181.600,282.000 181.600 C 282.220 181.600,282.400 181.240,282.400 180.800 C 282.400 180.360,282.580 180.000,282.800 180.000 C 283.020 180.000,283.200 179.640,283.200 179.200 C 283.200 178.760,283.380 178.400,283.600 178.400 C 283.820 178.400,284.000 177.860,284.000 177.200 C 284.000 176.540,284.180 176.000,284.400 176.000 C 284.620 176.000,284.800 175.640,284.800 175.200 C 284.800 174.760,284.980 174.400,285.200 174.400 C 285.420 174.400,285.600 173.961,285.600 173.424 C 285.600 172.887,285.780 172.336,286.000 172.200 C 286.220 172.064,286.400 171.513,286.400 170.976 C 286.400 170.439,286.580 170.000,286.800 170.000 C 287.020 170.000,287.200 169.280,287.200 168.400 C 287.200 167.520,287.380 166.800,287.600 166.800 C 287.820 166.800,288.000 166.271,288.000 165.624 C 288.000 164.977,288.180 164.336,288.400 164.200 C 288.620 164.064,288.800 163.153,288.800 162.176 C 288.800 161.199,288.963 160.400,289.163 160.400 C 289.570 160.400,289.941 157.551,290.229 152.200 C 290.335 150.220,290.610 148.228,290.839 147.774 C 291.092 147.273,291.172 145.382,291.042 142.974 C 290.923 140.788,290.716 136.930,290.581 134.400 C 290.446 131.870,290.170 129.629,289.968 129.420 C 289.766 129.211,289.600 127.906,289.600 126.520 C 289.600 125.107,289.424 124.000,289.200 124.000 C 288.980 124.000,288.800 123.280,288.800 122.400 C 288.800 121.520,288.620 120.800,288.400 120.800 C 288.180 120.800,288.000 120.080,288.000 119.200 C 288.000 118.320,287.820 117.600,287.600 117.600 C 287.380 117.600,287.200 116.981,287.200 116.224 C 287.200 115.467,287.020 114.736,286.800 114.600 C 286.580 114.464,286.400 114.003,286.400 113.576 C 286.400 113.149,286.220 112.800,286.000 112.800 C 285.780 112.800,285.600 112.361,285.600 111.824 C 285.600 111.287,285.420 110.736,285.200 110.600 C 284.980 110.464,284.800 109.913,284.800 109.376 C 284.800 108.839,284.620 108.400,284.400 108.400 C 284.180 108.400,284.000 108.040,284.000 107.600 C 284.000 107.160,283.820 106.800,283.600 106.800 C 283.380 106.800,283.200 106.440,283.200 106.000 C 283.200 105.560,283.020 105.200,282.800 105.200 C 282.580 105.200,282.400 104.660,282.400 104.000 C 282.400 103.340,282.220 102.800,282.000 102.800 C 281.780 102.800,281.600 102.440,281.600 102.000 C 281.600 101.560,281.420 101.200,281.200 101.200 C 280.980 101.200,280.800 100.840,280.800 100.400 C 280.800 99.960,280.620 99.600,280.400 99.600 C 280.180 99.600,280.000 99.280,280.000 98.888 C 280.000 98.497,279.640 97.917,279.200 97.600 C 278.760 97.283,278.400 96.703,278.400 96.312 C 278.400 95.920,278.220 95.600,278.000 95.600 C 277.780 95.600,277.600 95.364,277.600 95.075 C 277.600 94.787,277.240 94.164,276.800 93.692 C 276.360 93.220,276.000 92.646,276.000 92.417 C 276.000 92.188,275.842 92.000,275.649 92.000 C 275.455 92.000,275.064 91.437,274.779 90.748 C 274.493 90.060,273.842 89.078,273.330 88.566 C 272.819 88.055,272.400 87.470,272.400 87.266 C 272.400 87.063,271.680 86.155,270.800 85.248 C 269.920 84.341,269.200 83.430,269.200 83.224 C 269.200 83.018,267.585 81.263,265.610 79.325 C 260.551 74.357,259.275 73.200,258.856 73.200 C 258.655 73.200,258.065 72.662,257.545 72.004 C 257.025 71.346,256.375 70.806,256.100 70.804 C 255.825 70.802,255.600 70.620,255.600 70.400 C 255.600 70.180,255.418 70.000,255.196 70.000 C 254.974 70.000,254.228 69.460,253.537 68.800 C 252.846 68.140,252.121 67.600,251.924 67.600 C 251.727 67.600,251.180 67.240,250.708 66.800 C 250.236 66.360,249.613 66.000,249.325 66.000 C 249.036 66.000,248.800 65.820,248.800 65.600 C 248.800 65.380,248.480 65.200,248.088 65.200 C 247.697 65.200,247.117 64.840,246.800 64.400 C 246.483 63.960,245.903 63.600,245.512 63.600 C 245.120 63.600,244.800 63.420,244.800 63.200 C 244.800 62.980,244.440 62.800,244.000 62.800 C 243.560 62.800,243.200 62.620,243.200 62.400 C 243.200 62.180,242.855 62.000,242.433 62.000 C 242.012 62.000,241.607 61.859,241.533 61.686 C 241.280 61.089,235.336 58.400,234.270 58.400 C 233.682 58.400,233.200 58.220,233.200 58.000 C 233.200 57.780,232.660 57.600,232.000 57.600 C 231.340 57.600,230.800 57.420,230.800 57.200 C 230.800 56.980,230.440 56.800,230.000 56.800 C 229.560 56.800,229.200 56.620,229.200 56.400 C 229.200 56.180,228.660 56.000,228.000 56.000 C 227.340 56.000,226.800 55.820,226.800 55.600 C 226.800 55.380,226.181 55.200,225.424 55.200 C 224.667 55.200,223.936 55.020,223.800 54.800 C 223.664 54.580,222.933 54.400,222.176 54.400 C 221.419 54.400,220.800 54.220,220.800 54.000 C 220.800 53.780,219.900 53.600,218.800 53.600 C 217.700 53.600,216.800 53.420,216.800 53.200 C 216.800 52.971,215.600 52.800,214.000 52.800 C 212.400 52.800,211.200 52.629,211.200 52.400 C 211.200 52.143,207.200 52.000,200.000 52.000 C 192.800 52.000,188.800 52.143,188.800 52.400 M202.000 68.000 C 202.000 68.241,203.659 68.400,206.176 68.400 C 208.529 68.400,210.461 68.575,210.600 68.800 C 210.736 69.020,211.827 69.200,213.024 69.200 C 214.221 69.200,215.200 69.380,215.200 69.600 C 215.200 69.820,215.920 70.000,216.800 70.000 C 217.680 70.000,218.400 70.180,218.400 70.400 C 218.400 70.620,219.120 70.800,220.000 70.800 C 220.880 70.800,221.600 70.980,221.600 71.200 C 221.600 71.420,222.140 71.600,222.800 71.600 C 223.460 71.600,224.000 71.780,224.000 72.000 C 224.000 72.220,224.272 72.400,224.605 72.400 C 224.938 72.400,225.523 72.565,225.905 72.766 C 226.287 72.968,227.320 73.427,228.200 73.786 C 229.080 74.145,230.113 74.610,230.495 74.819 C 230.877 75.029,231.642 75.200,232.195 75.200 C 232.748 75.200,233.200 75.380,233.200 75.600 C 233.200 75.820,233.520 76.000,233.912 76.000 C 234.303 76.000,234.883 76.360,235.200 76.800 C 235.517 77.240,236.097 77.600,236.488 77.600 C 236.880 77.600,237.200 77.780,237.200 78.000 C 237.200 78.220,237.520 78.400,237.912 78.400 C 238.303 78.400,238.883 78.760,239.200 79.200 C 239.517 79.640,240.057 80.000,240.400 80.000 C 240.743 80.000,241.283 80.360,241.600 80.800 C 241.917 81.240,242.319 81.600,242.492 81.600 C 242.665 81.600,243.372 82.140,244.063 82.800 C 244.754 83.460,245.468 84.000,245.651 84.000 C 245.834 84.000,247.113 85.079,248.492 86.398 C 249.871 87.717,251.143 88.797,251.318 88.798 C 251.688 88.800,253.600 90.649,253.600 91.004 C 253.600 91.136,254.680 92.304,256.000 93.600 C 257.320 94.896,258.403 96.191,258.406 96.478 C 258.410 96.765,258.943 97.601,259.591 98.337 C 260.239 99.072,260.878 100.017,261.012 100.437 C 261.145 100.856,261.422 101.200,261.627 101.200 C 261.832 101.200,262.000 101.436,262.000 101.725 C 262.000 102.013,262.360 102.636,262.800 103.108 C 263.240 103.580,263.600 104.120,263.600 104.308 C 263.600 104.496,263.925 104.998,264.322 105.425 C 264.720 105.851,265.303 106.785,265.620 107.500 C 265.936 108.215,266.331 108.800,266.498 108.800 C 266.664 108.800,266.800 109.160,266.800 109.600 C 266.800 110.040,266.980 110.400,267.200 110.400 C 267.420 110.400,267.600 110.760,267.600 111.200 C 267.600 111.640,267.780 112.000,268.000 112.000 C 268.220 112.000,268.400 112.540,268.400 113.200 C 268.400 113.860,268.580 114.400,268.800 114.400 C 269.020 114.400,269.200 114.760,269.200 115.200 C 269.200 115.640,269.380 116.000,269.600 116.000 C 269.820 116.000,270.000 116.540,270.000 117.200 C 270.000 117.860,270.180 118.400,270.400 118.400 C 270.620 118.400,270.800 118.940,270.800 119.600 C 270.800 120.260,270.980 120.800,271.200 120.800 C 271.420 120.800,271.600 121.430,271.600 122.200 C 271.600 122.970,271.780 123.600,272.000 123.600 C 272.220 123.600,272.400 124.140,272.400 124.800 C 272.400 125.460,272.580 126.000,272.800 126.000 C 273.022 126.000,273.200 127.067,273.200 128.400 C 273.200 129.733,273.378 130.800,273.600 130.800 C 273.833 130.800,274.000 132.133,274.000 134.000 C 274.000 135.867,274.167 137.200,274.400 137.200 C 274.645 137.200,274.800 139.133,274.800 142.200 C 274.800 145.267,274.645 147.200,274.400 147.200 C 274.167 147.200,274.000 148.533,274.000 150.400 C 274.000 152.267,273.833 153.600,273.600 153.600 C 273.378 153.600,273.200 154.667,273.200 156.000 C 273.200 157.333,273.022 158.400,272.800 158.400 C 272.580 158.400,272.400 159.030,272.400 159.800 C 272.400 160.570,272.220 161.200,272.000 161.200 C 271.780 161.200,271.600 161.920,271.600 162.800 C 271.600 163.680,271.420 164.400,271.200 164.400 C 270.980 164.400,270.800 164.760,270.800 165.200 C 270.800 165.640,270.620 166.000,270.400 166.000 C 270.180 166.000,270.000 166.540,270.000 167.200 C 270.000 167.860,269.820 168.400,269.600 168.400 C 269.380 168.400,269.200 168.940,269.200 169.600 C 269.200 170.260,269.020 170.800,268.800 170.800 C 268.580 170.800,268.400 171.160,268.400 171.600 C 268.400 172.040,268.220 172.400,268.000 172.400 C 267.780 172.400,267.600 172.760,267.600 173.200 C 267.600 173.640,267.420 174.000,267.200 174.000 C 266.980 174.000,266.800 174.360,266.800 174.800 C 266.800 175.240,266.654 175.600,266.475 175.600 C 266.296 175.600,265.902 176.230,265.600 177.000 C 265.298 177.770,264.904 178.400,264.725 178.400 C 264.546 178.400,264.400 178.720,264.400 179.112 C 264.400 179.503,264.040 180.083,263.600 180.400 C 263.160 180.717,262.800 181.297,262.800 181.688 C 262.800 182.080,262.620 182.400,262.400 182.400 C 262.180 182.400,262.000 182.672,262.000 183.004 C 262.000 183.336,261.460 184.172,260.800 184.863 C 260.140 185.554,259.600 186.280,259.600 186.476 C 259.600 186.855,259.161 187.439,257.700 189.001 C 257.205 189.530,256.800 190.202,256.800 190.494 C 256.800 190.785,256.412 191.288,255.937 191.612 C 255.463 191.935,253.576 193.685,251.743 195.500 C 249.911 197.315,248.251 198.800,248.054 198.800 C 247.857 198.800,246.995 199.475,246.138 200.300 C 245.280 201.125,244.091 202.054,243.496 202.364 C 242.900 202.674,242.308 203.259,242.180 203.664 C 242.051 204.069,241.598 204.400,241.173 204.400 C 240.748 204.400,240.400 204.580,240.400 204.800 C 240.400 205.020,240.080 205.200,239.688 205.200 C 239.297 205.200,238.717 205.560,238.400 206.000 C 238.083 206.440,237.503 206.800,237.112 206.800 C 236.720 206.800,236.400 206.980,236.400 207.200 C 236.400 207.420,236.040 207.600,235.600 207.600 C 235.160 207.600,234.800 207.780,234.800 208.000 C 234.800 208.220,234.528 208.400,234.195 208.400 C 233.681 208.400,228.941 210.445,226.705 211.631 C 226.323 211.834,225.738 212.000,225.405 212.000 C 225.072 212.000,224.800 212.180,224.800 212.400 C 224.800 212.620,224.260 212.800,223.600 212.800 C 222.940 212.800,222.400 212.980,222.400 213.200 C 222.400 213.420,221.680 213.600,220.800 213.600 C 219.920 213.600,219.200 213.780,219.200 214.000 C 219.200 214.220,218.581 214.400,217.824 214.400 C 217.067 214.400,216.336 214.580,216.200 214.800 C 216.064 215.020,215.243 215.200,214.376 215.200 C 213.509 215.200,212.800 215.380,212.800 215.600 C 212.800 215.826,211.667 216.000,210.200 216.000 C 208.733 216.000,207.600 216.174,207.600 216.400 C 207.600 216.653,204.800 216.800,200.000 216.800 C 195.200 216.800,192.400 216.653,192.400 216.400 C 192.400 216.180,191.421 216.000,190.224 216.000 C 189.027 216.000,187.936 215.820,187.800 215.600 C 187.664 215.380,186.753 215.200,185.776 215.200 C 184.799 215.200,184.000 215.020,184.000 214.800 C 184.000 214.580,183.280 214.400,182.400 214.400 C 181.520 214.400,180.800 214.220,180.800 214.000 C 180.800 213.780,180.080 213.600,179.200 213.600 C 178.320 213.600,177.600 213.420,177.600 213.200 C 177.600 212.980,177.060 212.800,176.400 212.800 C 175.740 212.800,175.199 212.665,175.197 212.500 C 175.193 212.166,173.278 211.200,172.619 211.200 C 172.387 211.200,170.899 210.570,169.311 209.800 C 167.724 209.030,166.150 208.400,165.813 208.400 C 165.476 208.400,165.200 208.220,165.200 208.000 C 165.200 207.780,164.840 207.600,164.400 207.600 C 163.960 207.600,163.600 207.420,163.600 207.200 C 163.600 206.980,163.280 206.800,162.888 206.800 C 162.497 206.800,161.917 206.440,161.600 206.000 C 161.283 205.560,160.743 205.200,160.400 205.200 C 160.057 205.200,159.517 204.840,159.200 204.400 C 158.883 203.960,158.433 203.600,158.200 203.600 C 157.967 203.600,157.517 203.240,157.200 202.800 C 156.883 202.360,156.393 202.000,156.112 202.000 C 155.830 202.000,155.600 201.820,155.600 201.600 C 155.600 201.380,155.420 201.200,155.200 201.200 C 154.981 201.200,154.059 200.480,153.152 199.600 C 152.245 198.720,151.342 198.000,151.145 198.000 C 150.753 198.000,144.800 192.160,144.800 191.775 C 144.800 191.644,144.104 190.868,143.253 190.051 C 142.402 189.233,141.385 187.942,140.993 187.182 C 140.602 186.422,139.948 185.509,139.541 185.153 C 139.133 184.797,138.800 184.252,138.800 183.941 C 138.800 183.631,138.440 183.117,138.000 182.800 C 137.560 182.483,137.200 181.903,137.200 181.512 C 137.200 181.120,137.020 180.800,136.800 180.800 C 136.580 180.800,136.400 180.564,136.400 180.275 C 136.400 179.987,136.040 179.364,135.600 178.892 C 135.160 178.420,134.800 177.756,134.800 177.417 C 134.800 177.078,134.654 176.800,134.475 176.800 C 134.296 176.800,133.902 176.170,133.600 175.400 C 133.298 174.630,132.904 174.000,132.725 174.000 C 132.546 174.000,132.400 173.640,132.400 173.200 C 132.400 172.760,132.220 172.400,132.000 172.400 C 131.780 172.400,131.600 171.860,131.600 171.200 C 131.600 170.540,131.420 170.000,131.200 170.000 C 130.980 170.000,130.800 169.640,130.800 169.200 C 130.800 168.760,130.620 168.400,130.400 168.400 C 130.180 168.400,130.000 167.860,130.000 167.200 C 130.000 166.540,129.820 166.000,129.600 166.000 C 129.380 166.000,129.200 165.460,129.200 164.800 C 129.200 164.140,129.020 163.600,128.800 163.600 C 128.580 163.600,128.400 162.981,128.400 162.224 C 128.400 161.467,128.220 160.736,128.000 160.600 C 127.780 160.464,127.600 159.733,127.600 158.976 C 127.600 158.219,127.420 157.600,127.200 157.600 C 126.978 157.600,126.800 156.533,126.800 155.200 C 126.800 153.867,126.622 152.800,126.400 152.800 C 126.159 152.800,126.000 151.141,126.000 148.624 C 126.000 146.271,125.825 144.339,125.600 144.200 C 125.380 144.064,125.200 143.164,125.200 142.200 C 125.200 141.236,125.380 140.336,125.600 140.200 C 125.825 140.061,126.000 138.129,126.000 135.776 C 126.000 133.259,126.159 131.600,126.400 131.600 C 126.622 131.600,126.800 130.533,126.800 129.200 C 126.800 127.867,126.978 126.800,127.200 126.800 C 127.420 126.800,127.600 126.170,127.600 125.400 C 127.600 124.630,127.780 124.000,128.000 124.000 C 128.220 124.000,128.400 123.280,128.400 122.400 C 128.400 121.520,128.580 120.800,128.800 120.800 C 129.020 120.800,129.200 120.451,129.200 120.024 C 129.200 119.597,129.380 119.136,129.600 119.000 C 129.820 118.864,130.000 118.313,130.000 117.776 C 130.000 117.239,130.180 116.800,130.400 116.800 C 130.620 116.800,130.800 116.260,130.800 115.600 C 130.800 114.940,130.980 114.400,131.200 114.400 C 131.420 114.400,131.600 114.040,131.600 113.600 C 131.600 113.160,131.780 112.800,132.000 112.800 C 132.220 112.800,132.400 112.440,132.400 112.000 C 132.400 111.560,132.580 111.200,132.800 111.200 C 133.020 111.200,133.200 110.840,133.200 110.400 C 133.200 109.960,133.380 109.600,133.600 109.600 C 133.820 109.600,134.000 109.240,134.000 108.800 C 134.000 108.360,134.146 108.000,134.325 108.000 C 134.504 108.000,134.898 107.370,135.200 106.600 C 135.502 105.830,135.896 105.200,136.075 105.200 C 136.254 105.200,136.400 104.922,136.400 104.583 C 136.400 104.244,136.760 103.580,137.200 103.108 C 137.640 102.636,138.000 102.013,138.000 101.725 C 138.000 101.436,138.150 101.200,138.332 101.200 C 138.515 101.200,138.920 100.705,139.232 100.100 C 139.545 99.495,140.205 98.552,140.700 98.004 C 141.195 97.456,141.600 96.773,141.600 96.485 C 141.600 96.197,142.860 94.719,144.400 93.200 C 145.940 91.681,147.200 90.262,147.200 90.046 C 147.200 89.830,147.542 89.545,147.960 89.413 C 148.377 89.280,149.912 88.008,151.369 86.586 C 152.827 85.164,154.169 84.000,154.351 84.000 C 154.532 84.000,155.246 83.460,155.937 82.800 C 156.628 82.140,157.335 81.600,157.508 81.600 C 157.681 81.600,158.083 81.240,158.400 80.800 C 158.717 80.360,159.257 80.000,159.600 80.000 C 159.943 80.000,160.483 79.640,160.800 79.200 C 161.117 78.760,161.697 78.400,162.088 78.400 C 162.480 78.400,162.800 78.220,162.800 78.000 C 162.800 77.780,163.160 77.600,163.600 77.600 C 164.040 77.600,164.400 77.420,164.400 77.200 C 164.400 76.980,164.760 76.800,165.200 76.800 C 165.640 76.800,166.000 76.620,166.000 76.400 C 166.000 76.180,166.360 76.000,166.800 76.000 C 167.240 76.000,167.600 75.820,167.600 75.600 C 167.600 75.380,167.842 75.200,168.139 75.200 C 168.640 75.200,170.483 74.443,172.095 73.574 C 172.477 73.368,173.152 73.200,173.595 73.200 C 174.038 73.200,174.400 73.020,174.400 72.800 C 174.400 72.580,174.839 72.400,175.376 72.400 C 175.913 72.400,176.464 72.220,176.600 72.000 C 176.736 71.780,177.197 71.600,177.624 71.600 C 178.051 71.600,178.400 71.420,178.400 71.200 C 178.400 70.980,179.120 70.800,180.000 70.800 C 180.880 70.800,181.600 70.620,181.600 70.400 C 181.600 70.180,182.320 70.000,183.200 70.000 C 184.080 70.000,184.800 69.820,184.800 69.600 C 184.800 69.380,185.779 69.200,186.976 69.200 C 188.173 69.200,189.264 69.020,189.400 68.800 C 189.539 68.575,191.471 68.400,193.824 68.400 C 196.341 68.400,198.000 68.241,198.000 68.000 C 198.000 67.780,198.900 67.600,200.000 67.600 C 201.100 67.600,202.000 67.780,202.000 68.000 " stroke="none" fill="#0494fc" fill-rule="evenodd"></path><path id="path1" d="" stroke="none" fill="#0894fc" fill-rule="evenodd"></path><path id="path2" d="" stroke="none" fill="#0894fc" fill-rule="evenodd"></path><path id="path3" d="" stroke="none" fill="#0894fc" fill-rule="evenodd"></path><path id="path4" d="" stroke="none" fill="#0894fc" fill-rule="evenodd"></path></g></svg>